<svg xmlns="http://www.w3.org/2000/svg" xmlns:xlink="http://www.w3.org/1999/xlink" width="500" zoomAndPan="magnify" viewBox="0 0 375 374.999991" height="500" preserveAspectRatio="xMidYMid meet" version="1.0"><defs><g/><clipPath id="a89f0d335d"><rect x="0" width="46" y="0" height="89"/></clipPath></defs><path fill="#000000" d="M 206.242188 81.691406 C 218.488281 74.6875 221.410156 70.984375 237.449219 68.277344 C 239.53125 67.925781 241.691406 68.066406 243.753906 67.605469 C 252.605469 65.617188 251.730469 64.546875 261.652344 64.535156 L 274.402344 64.53125 C 282.304688 64.527344 286.257812 62.074219 290.074219 68.96875 L 300.035156 68.96875 C 301.46875 63.308594 307.007812 64.234375 311.503906 65.65625 C 328.21875 70.945312 332.804688 84.746094 332.765625 100.300781 L 332.746094 127.351562 C 332.75 130.058594 332.871094 132.828125 332.667969 135.523438 C 331.328125 153.625 316.113281 164.253906 298.816406 163.339844 C 296.492188 174.144531 291.320312 178.65625 281.421875 181.992188 C 274.304688 195.082031 269.9375 197.5625 255.871094 203.574219 C 252.054688 205.207031 248.21875 207.109375 244.242188 208.277344 C 236.59375 210.527344 224.777344 208.03125 221.863281 199.539062 C 220.308594 200.304688 219.078125 201.082031 217.800781 202.265625 C 222.394531 208.132812 227.320312 213.613281 232.898438 218.5625 C 235.953125 221.273438 240.464844 223.632812 242.839844 226.902344 C 250.375 237.257812 237.707031 251.714844 225.453125 245.882812 C 219.398438 243 207.339844 233.015625 202.902344 227.832031 C 201.871094 232.355469 201.933594 237.226562 201.628906 241.84375 L 200.34375 258.699219 C 199.972656 263.367188 199.753906 268.066406 198.730469 272.648438 C 194.207031 292.953125 177.195312 307.878906 156.46875 309.515625 C 152.023438 309.871094 136.074219 310.136719 132.113281 309.242188 C 116.359375 305.6875 117.894531 282.871094 133.785156 281.113281 C 138.109375 280.636719 148.71875 283.457031 150.210938 277.429688 C 151.347656 272.839844 147.585938 262.339844 155.46875 262.621094 C 155.457031 258.683594 154.847656 254.789062 154.910156 250.8125 C 149.050781 251.132812 149.65625 245.097656 149.320312 241.027344 L 148.371094 229.15625 C 141.117188 233.417969 134.132812 241.964844 126 245.832031 C 113.1875 251.929688 100.839844 236.640625 109.085938 226.285156 C 111.519531 223.230469 115.015625 222.246094 117.851562 219.777344 C 123.6875 214.695312 129.085938 208.882812 134.542969 203.390625 C 132.9375 202.265625 131.554688 200.902344 130.15625 199.539062 C 127.503906 203.535156 122.460938 208.023438 117.679688 209.140625 C 102.742188 212.621094 72.382812 192.851562 67.414062 178.761719 C 66.417969 175.9375 66.488281 173.097656 65.765625 170.269531 C 63.945312 163.175781 57.339844 163.054688 52.066406 159.9375 C 36.328125 150.625 41.503906 115.128906 48.265625 113.898438 C 55.964844 112.496094 52.316406 122.394531 51.710938 125.253906 C 50.566406 130.699219 50.246094 136.855469 51.015625 142.386719 C 53.574219 160.730469 71.609375 147.722656 75.316406 173.871094 C 76.257812 180.507812 84.078125 186.230469 89.140625 190.015625 L 89.300781 189.609375 C 88.589844 187.285156 85.851562 183.890625 84.75 180.746094 C 81.628906 171.835938 84.003906 163.4375 73.402344 158.628906 C 62.203125 153.550781 61.097656 157.066406 60.574219 141.457031 C 59.878906 120.886719 69.957031 95.167969 87.453125 83.394531 C 90.152344 81.582031 100.050781 77.816406 101.285156 76.1875 C 86.453125 77.878906 73.839844 84.558594 64.664062 96.570312 C 62.648438 99.207031 61.722656 103.453125 57.984375 104.039062 C 55.519531 104.421875 53.398438 102.800781 53.222656 100.261719 C 52.996094 97.019531 57.699219 90.988281 59.730469 88.550781 C 81.359375 62.574219 119.46875 60.328125 145.101562 81.691406 C 165.238281 70.023438 186.246094 72.074219 206.242188 81.691406 Z M 142.550781 198.144531 C 142.703125 196.859375 143.019531 195.757812 143.625 194.613281 C 143.769531 193.8125 144.351562 192.851562 144.703125 192.105469 C 148.523438 183.980469 147.773438 178.464844 143.550781 170.476562 C 140.824219 165.3125 137.898438 164.117188 135.609375 160.359375 C 124.0625 141.402344 131.648438 113.511719 145.6875 97.925781 C 148.941406 94.316406 153.027344 91.523438 156.15625 87.800781 C 146.875 90.945312 141.6875 98.289062 134.304688 102.25 L 134.179688 102.125 L 134.636719 101.570312 L 134.542969 101.25 C 119.15625 114.933594 116.585938 141.78125 125.785156 159.667969 C 131.324219 170.433594 141.203125 177.378906 135.519531 191.277344 C 137.546875 194.042969 139.746094 196.175781 142.550781 198.144531 Z M 142.550781 198.144531 " fill-opacity="1" fill-rule="nonzero"/><path fill="#427272" d="M 134.542969 101.25 C 135.175781 100.035156 136.425781 98.867188 137.417969 97.949219 C 148.167969 87.941406 161.5 82.296875 176.304688 82.800781 C 191.746094 86.882812 204.296875 93.898438 212.582031 108.101562 C 222.101562 124.414062 223.542969 146.429688 214.207031 163.207031 C 203.308594 182.789062 205.484375 177.203125 207.066406 199.539062 C 206.230469 200.171875 205.371094 200.707031 204.472656 201.242188 C 204.496094 199.09375 205.179688 195.976562 203.921875 194.101562 C 200.242188 188.597656 196.03125 193.929688 195.511719 199.539062 C 195.824219 203.832031 195.15625 208.394531 194.851562 212.691406 L 191.4375 257.828125 C 191.082031 262.523438 191 267.507812 189.8125 272.070312 C 185.796875 287.496094 172.808594 298.886719 156.8125 300.441406 C 153.992188 301.121094 137.507812 301.535156 133.953125 300.828125 C 129.84375 300.011719 128.394531 294.34375 131.339844 291.4375 C 137.519531 285.339844 159.078125 298.679688 159.183594 272.652344 L 159.171875 265.574219 C 158.1875 264 157.1875 263.253906 155.46875 262.621094 C 155.457031 258.683594 154.847656 254.789062 154.910156 250.8125 C 160.167969 249.128906 158.128906 243.308594 157.769531 239.140625 L 156.382812 223.339844 C 155.96875 218.707031 154.769531 195.753906 152.738281 193.753906 C 149.863281 190.921875 145.542969 193.355469 145.851562 197.25 C 145.84375 198.238281 145.800781 199.238281 145.851562 200.226562 C 144.714844 199.628906 143.535156 198.972656 142.550781 198.144531 C 142.703125 196.859375 143.019531 195.757812 143.625 194.613281 C 143.769531 193.8125 144.351562 192.851562 144.703125 192.105469 C 148.523438 183.980469 147.773438 178.464844 143.550781 170.476562 C 140.824219 165.3125 137.898438 164.117188 135.609375 160.359375 C 124.0625 141.402344 131.648438 113.511719 145.6875 97.925781 C 148.941406 94.316406 153.027344 91.523438 156.15625 87.800781 C 146.875 90.945312 141.6875 98.289062 134.304688 102.25 L 134.179688 102.125 L 134.636719 101.570312 Z M 134.542969 101.25 " fill-opacity="1" fill-rule="nonzero"/><path fill="#2f4f4f" d="M 184.011719 199.539062 C 185.277344 198.941406 186.203125 198.210938 187.199219 197.25 C 189.605469 198.359375 192.898438 199.074219 195.511719 199.539062 C 195.824219 203.832031 195.15625 208.394531 194.851562 212.691406 L 191.4375 257.828125 C 191.082031 262.523438 191 267.507812 189.8125 272.070312 C 185.796875 287.496094 172.808594 298.886719 156.8125 300.441406 C 157.816406 298.804688 160.949219 296.957031 162.484375 295.605469 C 171.84375 287.34375 176.300781 276.324219 177.140625 264.027344 C 175.328125 264.007812 173.496094 264.179688 171.691406 264.027344 C 168.546875 263.324219 165.835938 259.832031 168.484375 256.90625 C 170.710938 254.445312 175.773438 255.367188 178.855469 255.308594 C 179.402344 250.914062 179.8125 246.5 180.003906 242.078125 C 185.925781 242.121094 187.121094 235.292969 181.429688 233.472656 C 181.65625 229.410156 182.371094 225.386719 182.597656 221.328125 C 188.371094 220.796875 189.101562 213.171875 183.308594 212.480469 C 183.097656 208.152344 184.324219 203.835938 184.011719 199.539062 Z M 184.011719 199.539062 " fill-opacity="1" fill-rule="nonzero"/><path fill="#000000" d="M 178.855469 255.308594 C 183.050781 255.351562 185.511719 259.816406 182.75 262.570312 C 180.40625 264.910156 174.792969 263.660156 171.691406 264.027344 C 168.546875 263.324219 165.835938 259.832031 168.484375 256.90625 C 170.710938 254.445312 175.773438 255.367188 178.855469 255.308594 Z M 178.855469 255.308594 " fill-opacity="1" fill-rule="nonzero"/><path fill="#000000" d="M 184.011719 199.539062 C 175.183594 203.875 160.195312 199.257812 165.207031 191.707031 C 168.007812 187.492188 172.960938 192.378906 176.640625 192.160156 C 179.144531 192.011719 181.136719 190.40625 183.515625 189.960938 C 187.902344 189.136719 189.597656 194.242188 187.199219 197.25 C 186.203125 198.210938 185.277344 198.941406 184.011719 199.539062 Z M 184.011719 199.539062 " fill-opacity="1" fill-rule="nonzero"/><path fill="#000000" d="M 182.597656 221.328125 C 178.789062 220.960938 169.730469 222.449219 166.886719 220.109375 C 165.121094 218.65625 165.085938 215.511719 166.675781 213.917969 C 169.394531 211.183594 179.648438 212.472656 183.308594 212.480469 C 189.101562 213.171875 188.371094 220.796875 182.597656 221.328125 Z M 182.597656 221.328125 " fill-opacity="1" fill-rule="nonzero"/><path fill="#000000" d="M 181.429688 233.472656 C 187.121094 235.292969 185.925781 242.121094 180.003906 242.078125 C 176.933594 242.066406 169.46875 242.902344 167.257812 240.890625 C 165.617188 239.398438 165.601562 236.375 167.207031 234.855469 C 169.53125 232.65625 178.191406 233.453125 181.429688 233.472656 Z M 181.429688 233.472656 " fill-opacity="1" fill-rule="nonzero"/><path fill="#000000" d="M 202.769531 133.527344 C 202.878906 133.511719 202.992188 133.5 203.101562 133.492188 C 203.214844 133.484375 203.328125 133.476562 203.4375 133.472656 C 203.550781 133.46875 203.664062 133.46875 203.773438 133.472656 C 203.886719 133.472656 203.996094 133.476562 204.109375 133.484375 C 204.222656 133.492188 204.332031 133.503906 204.445312 133.515625 C 204.554688 133.527344 204.667969 133.542969 204.777344 133.5625 C 204.886719 133.582031 204.996094 133.601562 205.105469 133.625 C 205.214844 133.648438 205.324219 133.675781 205.433594 133.707031 C 205.539062 133.734375 205.648438 133.765625 205.753906 133.800781 C 205.859375 133.835938 205.96875 133.871094 206.070312 133.910156 C 206.175781 133.949219 206.28125 133.992188 206.382812 134.039062 C 206.484375 134.082031 206.585938 134.128906 206.6875 134.179688 C 206.789062 134.226562 206.886719 134.28125 206.984375 134.335938 C 207.082031 134.386719 207.179688 134.445312 207.273438 134.503906 C 207.371094 134.5625 207.464844 134.625 207.554688 134.6875 C 207.648438 134.75 207.738281 134.816406 207.828125 134.886719 C 207.914062 134.953125 208.003906 135.023438 208.089844 135.097656 C 208.171875 135.167969 208.257812 135.242188 208.339844 135.320312 C 208.421875 135.394531 208.5 135.472656 208.578125 135.554688 C 208.65625 135.632812 208.734375 135.714844 208.808594 135.800781 C 208.882812 135.882812 208.953125 135.96875 209.023438 136.058594 C 209.09375 136.144531 209.160156 136.234375 209.226562 136.324219 C 209.292969 136.417969 209.355469 136.507812 209.414062 136.601562 C 209.476562 136.695312 209.535156 136.792969 209.589844 136.890625 C 209.648438 136.984375 209.699219 137.082031 209.753906 137.183594 C 209.804688 137.28125 209.851562 137.382812 209.898438 137.484375 C 209.945312 137.585938 209.988281 137.6875 210.03125 137.792969 C 210.074219 137.898438 210.113281 138.003906 210.148438 138.109375 C 210.183594 138.214844 210.21875 138.320312 210.25 138.429688 C 210.28125 138.535156 210.308594 138.644531 210.335938 138.753906 C 210.363281 138.863281 210.386719 138.972656 210.40625 139.082031 C 210.425781 139.191406 210.445312 139.300781 210.460938 139.414062 C 210.472656 139.523438 210.488281 139.636719 210.496094 139.746094 C 210.507812 139.859375 210.511719 139.96875 210.519531 140.082031 C 210.523438 140.191406 210.523438 140.304688 210.523438 140.417969 C 210.519531 140.527344 210.515625 140.640625 210.511719 140.753906 C 210.503906 140.863281 210.496094 140.976562 210.484375 141.085938 C 210.46875 141.199219 210.457031 141.308594 210.4375 141.421875 C 210.421875 141.53125 210.398438 141.640625 210.378906 141.75 C 210.355469 141.859375 210.328125 141.96875 210.300781 142.078125 C 210.273438 142.183594 210.242188 142.292969 210.207031 142.398438 C 210.175781 142.507812 210.140625 142.613281 210.101562 142.71875 C 210.0625 142.824219 210.019531 142.925781 209.976562 143.03125 C 209.933594 143.132812 209.886719 143.234375 209.839844 143.335938 C 209.789062 143.4375 209.738281 143.535156 209.683594 143.632812 C 209.628906 143.734375 209.574219 143.828125 209.515625 143.925781 C 209.457031 144.019531 209.398438 144.113281 209.335938 144.207031 C 209.273438 144.300781 209.207031 144.390625 209.140625 144.480469 C 209.070312 144.570312 209.003906 144.65625 208.929688 144.742188 C 208.859375 144.828125 208.785156 144.914062 208.710938 144.996094 C 208.632812 145.078125 208.554688 145.160156 208.476562 145.238281 C 208.398438 145.316406 208.316406 145.394531 208.230469 145.46875 C 208.148438 145.542969 208.0625 145.613281 207.976562 145.683594 C 207.890625 145.753906 207.800781 145.824219 207.710938 145.890625 C 207.621094 145.957031 207.527344 146.019531 207.433594 146.082031 C 207.339844 146.144531 207.246094 146.203125 207.148438 146.257812 C 207.054688 146.316406 206.957031 146.371094 206.855469 146.421875 C 206.757812 146.476562 206.660156 146.527344 206.558594 146.574219 C 206.457031 146.621094 206.351562 146.664062 206.25 146.707031 C 206.144531 146.75 206.042969 146.789062 205.9375 146.828125 C 205.828125 146.863281 205.722656 146.898438 205.617188 146.929688 C 205.507812 146.964844 205.402344 146.992188 205.292969 147.019531 C 205.183594 147.046875 205.074219 147.070312 204.964844 147.089844 C 204.855469 147.113281 204.746094 147.132812 204.632812 147.148438 C 204.523438 147.164062 204.410156 147.175781 204.296875 147.1875 C 204.183594 147.199219 204.070312 147.207031 203.957031 147.210938 C 203.84375 147.21875 203.734375 147.21875 203.621094 147.21875 C 203.507812 147.21875 203.394531 147.214844 203.28125 147.210938 C 203.167969 147.203125 203.054688 147.195312 202.941406 147.183594 C 202.828125 147.171875 202.71875 147.15625 202.605469 147.140625 C 202.496094 147.121094 202.382812 147.101562 202.273438 147.078125 C 202.160156 147.058594 202.050781 147.03125 201.941406 147.003906 C 201.832031 146.976562 201.722656 146.945312 201.613281 146.910156 C 201.507812 146.878906 201.398438 146.84375 201.292969 146.804688 C 201.1875 146.765625 201.082031 146.722656 200.980469 146.679688 C 200.875 146.636719 200.769531 146.589844 200.667969 146.539062 C 200.566406 146.492188 200.464844 146.441406 200.367188 146.386719 C 200.269531 146.332031 200.171875 146.277344 200.074219 146.21875 C 199.976562 146.15625 199.882812 146.097656 199.789062 146.03125 C 199.695312 145.96875 199.601562 145.902344 199.511719 145.835938 C 199.421875 145.769531 199.332031 145.699219 199.246094 145.625 C 199.160156 145.554688 199.074219 145.476562 198.992188 145.402344 C 198.910156 145.324219 198.828125 145.246094 198.746094 145.164062 C 198.667969 145.085938 198.589844 145.003906 198.515625 144.917969 C 198.441406 144.835938 198.367188 144.75 198.296875 144.660156 C 198.226562 144.570312 198.15625 144.480469 198.089844 144.390625 C 198.023438 144.300781 197.960938 144.207031 197.898438 144.113281 C 197.835938 144.015625 197.777344 143.921875 197.71875 143.824219 C 197.660156 143.726562 197.605469 143.628906 197.554688 143.527344 C 197.503906 143.425781 197.453125 143.324219 197.40625 143.222656 C 197.359375 143.121094 197.3125 143.015625 197.269531 142.910156 C 197.226562 142.804688 197.1875 142.699219 197.152344 142.59375 C 197.113281 142.488281 197.082031 142.378906 197.046875 142.269531 C 197.015625 142.164062 196.988281 142.054688 196.960938 141.941406 C 196.9375 141.832031 196.910156 141.722656 196.890625 141.613281 C 196.871094 141.5 196.851562 141.386719 196.835938 141.277344 C 196.820312 141.164062 196.808594 141.050781 196.800781 140.941406 C 196.789062 140.828125 196.78125 140.714844 196.777344 140.601562 C 196.773438 140.488281 196.773438 140.375 196.773438 140.261719 C 196.773438 140.148438 196.78125 140.035156 196.785156 139.921875 C 196.792969 139.808594 196.804688 139.699219 196.816406 139.585938 C 196.828125 139.472656 196.84375 139.359375 196.859375 139.25 C 196.878906 139.136719 196.898438 139.027344 196.921875 138.917969 C 196.945312 138.804688 196.972656 138.695312 197 138.585938 C 197.03125 138.476562 197.0625 138.367188 197.097656 138.261719 C 197.132812 138.152344 197.167969 138.046875 197.207031 137.941406 C 197.246094 137.832031 197.289062 137.730469 197.335938 137.625 C 197.378906 137.523438 197.425781 137.417969 197.476562 137.316406 C 197.523438 137.214844 197.578125 137.117188 197.632812 137.015625 C 197.6875 136.917969 197.742188 136.820312 197.804688 136.722656 C 197.863281 136.628906 197.925781 136.53125 197.988281 136.441406 C 198.054688 136.347656 198.121094 136.253906 198.1875 136.164062 C 198.257812 136.074219 198.328125 135.988281 198.402344 135.902344 C 198.472656 135.816406 198.550781 135.730469 198.625 135.648438 C 198.703125 135.566406 198.785156 135.484375 198.863281 135.40625 C 198.945312 135.328125 199.027344 135.25 199.113281 135.175781 C 199.199219 135.101562 199.285156 135.03125 199.375 134.960938 C 199.464844 134.890625 199.554688 134.820312 199.644531 134.753906 C 199.738281 134.6875 199.832031 134.625 199.925781 134.566406 C 200.019531 134.503906 200.117188 134.445312 200.214844 134.386719 C 200.3125 134.332031 200.414062 134.277344 200.511719 134.226562 C 200.613281 134.175781 200.714844 134.125 200.820312 134.078125 C 200.921875 134.03125 201.027344 133.988281 201.132812 133.949219 C 201.238281 133.90625 201.34375 133.867188 201.449219 133.832031 C 201.558594 133.792969 201.664062 133.761719 201.773438 133.730469 C 201.882812 133.699219 201.992188 133.671875 202.101562 133.644531 C 202.210938 133.621094 202.324219 133.597656 202.433594 133.578125 C 202.546875 133.558594 202.65625 133.539062 202.769531 133.527344 Z M 202.769531 133.527344 " fill-opacity="1" fill-rule="nonzero"/><path fill="#000000" d="M 147.496094 133.566406 C 147.605469 133.546875 147.714844 133.53125 147.828125 133.519531 C 147.9375 133.507812 148.050781 133.496094 148.164062 133.488281 C 148.273438 133.480469 148.386719 133.476562 148.5 133.472656 C 148.613281 133.472656 148.722656 133.472656 148.835938 133.476562 C 148.949219 133.480469 149.058594 133.484375 149.171875 133.496094 C 149.285156 133.503906 149.394531 133.515625 149.507812 133.53125 C 149.617188 133.542969 149.730469 133.5625 149.839844 133.582031 C 149.949219 133.601562 150.058594 133.625 150.167969 133.648438 C 150.277344 133.675781 150.386719 133.703125 150.496094 133.734375 C 150.601562 133.761719 150.710938 133.796875 150.816406 133.832031 C 150.921875 133.867188 151.027344 133.90625 151.132812 133.949219 C 151.238281 133.988281 151.339844 134.035156 151.445312 134.078125 C 151.546875 134.125 151.648438 134.175781 151.746094 134.226562 C 151.847656 134.277344 151.945312 134.332031 152.042969 134.386719 C 152.140625 134.441406 152.234375 134.5 152.328125 134.5625 C 152.425781 134.621094 152.515625 134.6875 152.609375 134.75 C 152.699219 134.816406 152.789062 134.882812 152.875 134.953125 C 152.964844 135.023438 153.050781 135.09375 153.136719 135.167969 C 153.21875 135.242188 153.300781 135.320312 153.382812 135.398438 C 153.464844 135.476562 153.542969 135.554688 153.617188 135.636719 C 153.695312 135.71875 153.769531 135.804688 153.84375 135.890625 C 153.914062 135.976562 153.984375 136.0625 154.054688 136.152344 C 154.121094 136.242188 154.1875 136.332031 154.253906 136.421875 C 154.316406 136.515625 154.378906 136.609375 154.4375 136.703125 C 154.496094 136.800781 154.554688 136.898438 154.609375 136.996094 C 154.660156 137.09375 154.714844 137.191406 154.761719 137.292969 C 154.8125 137.394531 154.859375 137.496094 154.902344 137.597656 C 154.949219 137.703125 154.992188 137.804688 155.03125 137.910156 C 155.070312 138.015625 155.105469 138.121094 155.140625 138.230469 C 155.175781 138.335938 155.207031 138.445312 155.234375 138.554688 C 155.265625 138.660156 155.289062 138.769531 155.3125 138.878906 C 155.335938 138.988281 155.359375 139.101562 155.375 139.210938 C 155.394531 139.320312 155.410156 139.433594 155.421875 139.542969 C 155.433594 139.65625 155.445312 139.769531 155.453125 139.878906 C 155.457031 139.992188 155.460938 140.105469 155.464844 140.21875 C 155.464844 140.328125 155.464844 140.441406 155.460938 140.554688 C 155.457031 140.664062 155.449219 140.777344 155.441406 140.890625 C 155.429688 141 155.417969 141.113281 155.402344 141.222656 C 155.386719 141.335938 155.371094 141.445312 155.351562 141.554688 C 155.332031 141.667969 155.308594 141.777344 155.28125 141.886719 C 155.253906 141.996094 155.226562 142.101562 155.195312 142.210938 C 155.164062 142.320312 155.128906 142.425781 155.09375 142.53125 C 155.058594 142.636719 155.019531 142.742188 154.976562 142.847656 C 154.933594 142.953125 154.890625 143.054688 154.84375 143.15625 C 154.796875 143.257812 154.75 143.359375 154.695312 143.460938 C 154.644531 143.558594 154.589844 143.65625 154.535156 143.753906 C 154.476562 143.851562 154.417969 143.949219 154.359375 144.042969 C 154.296875 144.136719 154.234375 144.226562 154.167969 144.320312 C 154.101562 144.410156 154.035156 144.5 153.964844 144.585938 C 153.894531 144.675781 153.820312 144.761719 153.746094 144.84375 C 153.671875 144.929688 153.59375 145.011719 153.515625 145.089844 C 153.4375 145.171875 153.359375 145.25 153.273438 145.324219 C 153.191406 145.402344 153.109375 145.476562 153.023438 145.546875 C 152.9375 145.621094 152.847656 145.691406 152.757812 145.757812 C 152.671875 145.828125 152.578125 145.890625 152.488281 145.957031 C 152.394531 146.019531 152.300781 146.078125 152.203125 146.136719 C 152.109375 146.195312 152.011719 146.253906 151.914062 146.308594 C 151.816406 146.363281 151.714844 146.414062 151.613281 146.460938 C 151.511719 146.511719 151.410156 146.558594 151.308594 146.601562 C 151.203125 146.644531 151.101562 146.6875 150.996094 146.726562 C 150.890625 146.765625 150.785156 146.800781 150.675781 146.835938 C 150.570312 146.867188 150.460938 146.898438 150.351562 146.925781 C 150.242188 146.957031 150.136719 146.980469 150.023438 147.003906 C 149.914062 147.027344 149.804688 147.046875 149.695312 147.066406 C 149.582031 147.082031 149.472656 147.097656 149.363281 147.109375 C 149.25 147.121094 149.140625 147.128906 149.027344 147.136719 C 148.917969 147.144531 148.804688 147.148438 148.695312 147.148438 C 148.582031 147.148438 148.472656 147.148438 148.359375 147.144531 C 148.25 147.140625 148.136719 147.132812 148.027344 147.121094 C 147.914062 147.113281 147.804688 147.101562 147.695312 147.085938 C 147.582031 147.070312 147.472656 147.050781 147.363281 147.03125 C 147.253906 147.011719 147.144531 146.988281 147.035156 146.960938 C 146.925781 146.933594 146.820312 146.90625 146.710938 146.875 C 146.605469 146.84375 146.5 146.808594 146.394531 146.773438 C 146.289062 146.738281 146.183594 146.699219 146.082031 146.65625 C 145.976562 146.613281 145.875 146.570312 145.773438 146.523438 C 145.671875 146.476562 145.570312 146.429688 145.472656 146.378906 C 145.375 146.324219 145.277344 146.273438 145.179688 146.214844 C 145.082031 146.160156 144.988281 146.101562 144.894531 146.039062 C 144.800781 145.980469 144.710938 145.917969 144.621094 145.851562 C 144.527344 145.785156 144.441406 145.71875 144.351562 145.648438 C 144.265625 145.578125 144.179688 145.507812 144.097656 145.433594 C 144.015625 145.359375 143.933594 145.28125 143.851562 145.203125 C 143.773438 145.128906 143.695312 145.046875 143.617188 144.964844 C 143.542969 144.882812 143.46875 144.800781 143.398438 144.714844 C 143.324219 144.628906 143.253906 144.542969 143.1875 144.453125 C 143.121094 144.363281 143.054688 144.273438 142.992188 144.183594 C 142.929688 144.089844 142.867188 143.996094 142.808594 143.902344 C 142.75 143.808594 142.695312 143.710938 142.640625 143.613281 C 142.585938 143.515625 142.535156 143.417969 142.484375 143.316406 C 142.4375 143.214844 142.390625 143.113281 142.347656 143.011719 C 142.300781 142.910156 142.261719 142.804688 142.222656 142.703125 C 142.183594 142.597656 142.144531 142.492188 142.113281 142.386719 C 142.078125 142.28125 142.046875 142.171875 142.019531 142.066406 C 141.988281 141.957031 141.964844 141.847656 141.941406 141.738281 C 141.917969 141.628906 141.898438 141.519531 141.878906 141.410156 C 141.859375 141.300781 141.84375 141.191406 141.832031 141.078125 C 141.820312 140.96875 141.8125 140.855469 141.804688 140.746094 C 141.796875 140.632812 141.792969 140.523438 141.789062 140.410156 C 141.789062 140.300781 141.789062 140.1875 141.792969 140.078125 C 141.796875 139.964844 141.804688 139.855469 141.8125 139.742188 C 141.820312 139.632812 141.835938 139.519531 141.847656 139.410156 C 141.863281 139.300781 141.882812 139.191406 141.902344 139.082031 C 141.921875 138.96875 141.945312 138.859375 141.96875 138.753906 C 141.996094 138.644531 142.023438 138.535156 142.054688 138.429688 C 142.085938 138.320312 142.117188 138.214844 142.152344 138.109375 C 142.191406 138.003906 142.226562 137.898438 142.269531 137.796875 C 142.308594 137.691406 142.355469 137.589844 142.398438 137.488281 C 142.445312 137.386719 142.492188 137.285156 142.546875 137.1875 C 142.597656 137.085938 142.648438 136.988281 142.703125 136.890625 C 142.761719 136.796875 142.820312 136.699219 142.878906 136.605469 C 142.941406 136.511719 143.003906 136.421875 143.066406 136.328125 C 143.132812 136.238281 143.199219 136.148438 143.269531 136.0625 C 143.339844 135.976562 143.410156 135.890625 143.484375 135.804688 C 143.558594 135.722656 143.632812 135.640625 143.710938 135.558594 C 143.789062 135.480469 143.867188 135.402344 143.949219 135.324219 C 144.03125 135.25 144.113281 135.175781 144.199219 135.101562 C 144.28125 135.03125 144.371094 134.960938 144.457031 134.890625 C 144.546875 134.824219 144.636719 134.757812 144.726562 134.695312 C 144.820312 134.628906 144.914062 134.570312 145.007812 134.511719 C 145.101562 134.449219 145.199219 134.394531 145.296875 134.339844 C 145.390625 134.285156 145.492188 134.234375 145.589844 134.183594 C 145.691406 134.132812 145.792969 134.085938 145.894531 134.042969 C 145.996094 134 146.101562 133.957031 146.203125 133.917969 C 146.308594 133.878906 146.414062 133.839844 146.519531 133.804688 C 146.625 133.769531 146.734375 133.738281 146.839844 133.710938 C 146.949219 133.679688 147.054688 133.65625 147.164062 133.632812 C 147.273438 133.605469 147.382812 133.585938 147.496094 133.566406 Z M 147.496094 133.566406 " fill-opacity="1" fill-rule="nonzero"/><path fill="#ffc125" d="M 300.035156 68.96875 L 300.035156 69.691406 C 301.320312 73.816406 304.578125 72.941406 307.949219 73.820312 C 322.183594 77.535156 323.929688 89.25 323.914062 101.328125 L 323.90625 126.953125 C 323.910156 129.777344 324.011719 132.644531 323.6875 135.457031 C 322.378906 146.722656 311.5625 156.316406 300.035156 154.640625 C 293.929688 154.78125 290.734375 153.722656 290.074219 160.765625 C 289.4375 165.601562 287.960938 168.230469 284.085938 171.214844 C 283.980469 167.742188 284.089844 164.242188 284.085938 160.765625 C 283.375 154.058594 280.105469 154.582031 274.128906 154.613281 C 251.589844 154.726562 236.675781 156.386719 236.734375 127.464844 L 236.734375 100.59375 C 236.71875 79.789062 242.414062 73.347656 264.625 73.355469 L 278.917969 73.382812 C 283.632812 73.390625 288.15625 74.265625 290.074219 68.96875 Z M 300.035156 68.96875 " fill-opacity="1" fill-rule="nonzero"/><path fill="#427272" d="M 101.285156 76.1875 C 115.191406 76.019531 125.652344 77.894531 137.144531 86.40625 C 134.089844 89.179688 130.863281 91.804688 128.054688 94.828125 C 108.804688 115.558594 105.566406 147.105469 122.082031 170.476562 C 126.203125 176.308594 130.164062 181.1875 127.054688 188.585938 C 124.964844 193.558594 119.128906 201.035156 113.066406 200.714844 C 108.144531 200.453125 92.027344 193.8125 89.140625 190.015625 L 89.300781 189.609375 C 88.589844 187.285156 85.851562 183.890625 84.75 180.746094 C 81.628906 171.835938 84.003906 163.4375 73.402344 158.628906 C 62.203125 153.550781 61.097656 157.066406 60.574219 141.457031 C 59.878906 120.886719 69.957031 95.167969 87.453125 83.394531 C 90.152344 81.582031 100.050781 77.816406 101.285156 76.1875 Z M 101.285156 76.1875 " fill-opacity="1" fill-rule="nonzero"/><path fill="#2f4f4f" d="M 176.304688 82.800781 C 190.179688 82.496094 204.070312 88.871094 214.019531 98.410156 C 236.84375 120.296875 222.113281 126.710938 230.632812 147.082031 C 226.972656 160.265625 228.40625 161.234375 219.238281 170.621094 C 213.382812 176.609375 214.328125 184.265625 217.160156 191.277344 C 213.691406 193.886719 210.539062 196.914062 207.066406 199.539062 C 205.484375 177.203125 203.308594 182.789062 214.207031 163.207031 C 223.542969 146.429688 222.101562 124.414062 212.582031 108.101562 C 204.296875 93.898438 191.746094 86.882812 176.304688 82.800781 Z M 176.304688 82.800781 " fill-opacity="1" fill-rule="nonzero"/><path fill="#427272" d="M 237.609375 155.550781 C 245.734375 162.699219 252.375 163.339844 262.648438 163.347656 L 274.921875 163.339844 C 274.945312 175.386719 274.097656 184.914062 261.929688 191.449219 C 259.828125 192.574219 257.539062 193.289062 255.460938 194.464844 L 255.203125 194.613281 C 239.992188 199.320312 235.820312 208.054688 226.714844 190.246094 C 219.777344 176.683594 226.035156 178.644531 231.6875 170.46875 C 234.632812 166.210938 236.105469 160.457031 237.609375 155.550781 Z M 237.609375 155.550781 " fill-opacity="1" fill-rule="nonzero"/><path fill="#2f4f4f" d="M 210.285156 207.253906 C 211.300781 207.757812 212.542969 209.964844 213.296875 210.910156 C 217.902344 216.667969 223.253906 222.007812 228.949219 226.667969 C 231.84375 229.035156 240.332031 233.417969 234.242188 237.648438 C 232.835938 238.628906 231.578125 238.722656 229.925781 238.460938 C 222.148438 234.636719 208.46875 222.335938 203.644531 215.738281 C 203.59375 214.355469 203.535156 212.992188 203.644531 211.609375 C 205.949219 210.289062 208.105469 208.761719 210.285156 207.253906 Z M 210.285156 207.253906 " fill-opacity="1" fill-rule="nonzero"/><path fill="#2f4f4f" d="M 142.550781 208.117188 C 143.851562 208.8125 145.164062 209.453125 146.503906 210.070312 C 146.453125 213.054688 146.597656 216.164062 147.109375 219.105469 C 141.730469 222.234375 124.257812 237.9375 120.292969 238.460938 C 117.941406 238.191406 115.074219 236.457031 115.214844 233.761719 C 115.363281 230.886719 119.734375 229.621094 121.78125 228.085938 C 128.402344 223.121094 136.042969 213.976562 142.550781 208.117188 Z M 142.550781 208.117188 " fill-opacity="1" fill-rule="nonzero"/><path fill="#427272" d="M 232.117188 78.378906 L 232.386719 78.417969 C 232.417969 79.097656 229.4375 84.308594 228.984375 85.945312 C 227.585938 91 228.113281 96.105469 227.796875 101.25 C 226.109375 98.617188 224.003906 96.398438 221.863281 94.140625 C 219.414062 91.660156 216.804688 89.375 214.207031 87.054688 C 219.515625 83.15625 225.769531 80.160156 232.117188 78.378906 Z M 232.117188 78.378906 " fill-opacity="1" fill-rule="nonzero"/><g transform="matrix(1, 0, 0, 1, 258, 60)"><g clip-path="url(#a89f0d335d)"><g fill="#000000" fill-opacity="1"><g transform="translate(0.222292, 73.056239)"><g><path d="M 42.15625 -45.25 C 41.394531 -41.945312 39.34375 -38.707031 36 -35.53125 C 38.144531 -32.726562 39.21875 -29.175781 39.21875 -24.875 L 39.21875 0 L 32.4375 0 C 28.1875 -8.082031 25.414062 -13.164062 24.125 -15.25 C 22.832031 -17.34375 21.492188 -18.957031 20.109375 -20.09375 C 18.722656 -21.226562 17.382812 -21.796875 16.09375 -21.796875 C 14.851562 -21.796875 13.84375 -21.375 13.0625 -20.53125 C 12.289062 -19.695312 11.90625 -18.625 11.90625 -17.3125 L 11.90625 -12.546875 C 12.644531 -12.835938 13.492188 -12.984375 14.453125 -12.984375 C 16.335938 -12.984375 17.945312 -12.320312 19.28125 -11 C 20.625 -9.6875 21.296875 -8.097656 21.296875 -6.234375 C 21.296875 -4.367188 20.617188 -2.765625 19.265625 -1.421875 C 17.921875 -0.0859375 16.316406 0.578125 14.453125 0.578125 C 11.628906 0.578125 9.367188 -0.28125 7.671875 -2 C 5.972656 -3.726562 5.125 -6.070312 5.125 -9.03125 L 5.125 -17.171875 C 5.125 -20.660156 6.050781 -23.332031 7.90625 -25.1875 C 9.757812 -27.039062 12.332031 -27.96875 15.625 -27.96875 C 17.894531 -27.96875 19.984375 -27.238281 21.890625 -25.78125 C 23.804688 -24.320312 25.332031 -22.695312 26.46875 -20.90625 C 27.601562 -19.113281 29.59375 -15.441406 32.4375 -9.890625 L 32.4375 -24.875 C 32.4375 -27.4375 31.878906 -29.539062 30.765625 -31.1875 C 29.304688 -30.132812 27.296875 -29.007812 24.734375 -27.8125 L 23.046875 -30.1875 C 24.628906 -31 26.269531 -32.21875 27.96875 -33.84375 C 26.289062 -34.820312 24.328125 -35.3125 22.078125 -35.3125 C 17.160156 -35.3125 12.320312 -33.722656 7.5625 -30.546875 L 7.203125 -30.546875 L 7.203125 -38.109375 C 12.367188 -40.160156 17.304688 -41.1875 22.015625 -41.1875 C 26.222656 -41.1875 29.648438 -40.351562 32.296875 -38.6875 C 34.253906 -41.332031 35.234375 -43.519531 35.234375 -45.25 Z M 14.453125 -3.4375 C 15.210938 -3.4375 15.851562 -3.707031 16.375 -4.25 C 16.90625 -4.789062 17.171875 -5.453125 17.171875 -6.234375 C 17.171875 -6.953125 16.898438 -7.570312 16.359375 -8.09375 C 15.828125 -8.625 15.191406 -8.890625 14.453125 -8.890625 C 13.734375 -8.890625 13.101562 -8.625 12.5625 -8.09375 C 12.03125 -7.570312 11.765625 -6.953125 11.765625 -6.234375 C 11.765625 -5.453125 12.023438 -4.789062 12.546875 -4.25 C 13.078125 -3.707031 13.710938 -3.4375 14.453125 -3.4375 Z M 14.453125 -3.4375 "/></g></g></g></g></g></svg>